{"title":"Tubelight 2017 Hindi (1CD) Pre-DvDRip x264 AAC { TaRa }","magnet":"magnet:?xt=urn:btih:0f90cc3d3dfdcab1148d1ee7be4b9fa8a5615740&dn=Tubelight+2017+Hindi+%281CD%29+Pre-DvDRip+x264+AAC+%7B+TaRa+%7D&tr=udp%3A%2F%2Ftracker.leechers-paradise.org%3A6969&tr=udp%3A%2F%2Fzer0day.ch%3A1337&tr=udp%3A%2F%2Fopen.demonii.com%3A1337&tr=udp%3A%2F%2Ftracker.coppersurfer.tk%3A6969&tr=udp%3A%2F%2Fexodus.desync.com%3A6969","uploader":"SkTaRa","categoryP":"video","categoryS":"movies","size":"744689991","seeders":"0","leechers":"0","description":"===================================================================\r\nGeneral\r\nComplete name               : Tubelight 2017 Hindi (1CD) Pre-DvDRip x264 AAC { TaRa }.mkv\r\nFormat                      : Matroska\r\nFormat version              : Version 4 / Version 2\r\nFile size                   : 710 MiB\r\nDuration                    : 2h 12mn\r\nOverall bit rate            : 751 Kbps\r\n===================================================================\r\nVideo\r\nID                          : 1\r\nFormat                      : AVC\r\nFormat/Info                 : Advanced Video Codec\r\nFormat profile              : <a class=\"__cf_email__\" href=\"/cdn-cgi/l/email-protection\" data-cfemail=\"2961404e4169651a0718\">[email&#xA0;protected]</a><script data-cfhash=\"f9e31\" type=\"text/javascript\">/* <![CDATA[ */!function(t,e,r,n,c,a,p){try{t=document.currentScript||function(){for(t=document.getElementsByTagName('script'),e=t.length;e--;)if(t[e].getAttribute('data-cfhash'))return t[e]}();if(t&&(c=t.previousSibling)){p=t.parentNode;if(a=c.getAttribute('data-cfemail')){for(e='',r='0x'+a.substr(0,2)|0,n=2;a.length-n;n+=2)e+='%'+('0'+('0x'+a.substr(n,2)^r).toString(16)).slice(-2);p.replaceChild(document.createTextNode(decodeURIComponent(e)),c)}p.removeChild(t)}}catch(u){}}()/* ]]> */</script>\r\nFormat settings, CABAC      : Yes\r\nFormat settings, ReFrames   : 8 frames\r\nCodec ID                    : V_MPEG4/ISO/AVC\r\nDuration                    : 2h 12mn\r\nBit rate                    : 657 Kbps\r\nWidth                       : 640 pixels\r\nHeight                      : 260 pixels\r\nDisplay aspect ratio        : 2.462\r\nFrame rate mode             : Constant\r\nFrame rate                  : 25.000 fps\r\nColor space                 : YUV\r\nChroma subsampling          : 4:2:0\r\nBit depth                   : 8 bits\r\nScan type                   : Progressive\r\nBits/(Pixel*Frame)          : 0.158\r\nStream size                 : 621 MiB (87%)\r\nTitle                       : .....::::: TaRa :::::.....\r\nLanguage                    : Hindi\r\nDefault                     : Yes\r\nForced                      : No\r\n===================================================================\r\nAudio\r\nID                          : 2\r\nFormat                      : AAC\r\nFormat/Info                 : Advanced Audio Codec\r\nFormat profile              : LC\r\nCodec ID                    : A_AAC\r\nDuration                    : 2h 12mn\r\nBit rate                    : 92.2 Kbps\r\nChannel(s)                  : 2 channels\r\nChannel positions           : Front: L R\r\nSampling rate               : 44.1 KHz\r\nFrame rate                  : 43.066 fps (1024 spf)\r\nCompression mode            : Lossy\r\nStream size                 : 87.2 MiB (12%)\r\nTitle                       : .....::::: TaRa :::::.....\r\nLanguage                    : Hindi\r\nDefault                     : Yes\r\nForced                      : No\r\n=================================================================== <a href=\"\nhttps://www.jiopic.com/image/YVbWY\" rel=\"nofollow\" target=\"_NEW\">\nhttps://www.jiopic.com/image/YVbWY</a> <a href=\"\nhttps://www.jiopic.com/image/YVGB2\" rel=\"nofollow\" target=\"_NEW\">\nhttps://www.jiopic.com/image/YVGB2</a> <a href=\"\nhttps://www.jiopic.com/image/YVnxF\" rel=\"nofollow\" target=\"_NEW\">\nhttps://www.jiopic.com/image/YVnxF</a> <a href=\"\nhttps://www.jiopic.com/image/YVTR4\" rel=\"nofollow\" target=\"_NEW\">\nhttps://www.jiopic.com/image/YVTR4</a> <a href=\"\nhttps://www.jiopic.com/image/YVeli\" rel=\"nofollow\" target=\"_NEW\">\nhttps://www.jiopic.com/image/YVeli</a> <a href=\"\nhttps://www.jiopic.com/image/YV4a7\" rel=\"nofollow\" target=\"_NEW\">\nhttps://www.jiopic.com/image/YV4a7</a> <a href=\"\nhttps://www.jiopic.com/image/YVuQt\" rel=\"nofollow\" target=\"_NEW\">\nhttps://www.jiopic.com/image/YVuQt</a> <a href=\"\nhttps://www.jiopic.com/image/YVIuz\" rel=\"nofollow\" target=\"_NEW\">\nhttps://www.jiopic.com/image/YVIuz</a> <a href=\"\nhttps://www.jiopic.com/image/YVfkv\" rel=\"nofollow\" target=\"_NEW\">\nhttps://www.jiopic.com/image/YVfkv</a> <a href=\"\nhttps://www.jiopic.com/image/YVy7D\" rel=\"nofollow\" target=\"_NEW\">\nhttps://www.jiopic.com/image/YVy7D</a> <a href=\"\nhttps://www.jiopic.com/image/YV6C1\" rel=\"nofollow\" target=\"_NEW\">\nhttps://www.jiopic.com/image/YV6C1</a> <a href=\"\nhttps://www.jiopic.com/image/YVlaf\" rel=\"nofollow\" target=\"_NEW\">\nhttps://www.jiopic.com/image/YVlaf</a> <a href=\"\nhttps://www.jiopic.com/image/YVpBQ\" rel=\"nofollow\" target=\"_NEW\">\nhttps://www.jiopic.com/image/YVpBQ</a> <a href=\"\nhttps://www.jiopic.com/image/YVrmj\" rel=\"nofollow\" target=\"_NEW\">\nhttps://www.jiopic.com/image/YVrmj</a> <a href=\"\nhttps://www.jiopic.com/image/YV9ln\" rel=\"nofollow\" target=\"_NEW\">\nhttps://www.jiopic.com/image/YV9ln</a> <a href=\"\nhttps://www.jiopic.com/image/YVa1N\" rel=\"nofollow\" target=\"_NEW\">\nhttps://www.jiopic.com/image/YVa1N</a> <a href=\"\nhttps://www.jiopic.com/image/YVwuG\" rel=\"nofollow\" target=\"_NEW\">\nhttps://www.jiopic.com/image/YVwuG</a> <a href=\"\nhttps://www.jiopic.com/image/Y7XSA\" rel=\"nofollow\" target=\"_NEW\">\nhttps://www.jiopic.com/image/Y7XSA</a> <a href=\"\nhttps://www.jiopic.com/image/Y7Y7b\" rel=\"nofollow\" target=\"_NEW\">\nhttps://www.jiopic.com/image/Y7Y7b</a> <a href=\"\nhttps://www.jiopic.com/image/Y7kCP\" rel=\"nofollow\" target=\"_NEW\">\nhttps://www.jiopic.com/image/Y7kCP</a>","last_updated":"2017-06-24T12:00:29.132Z","parsed":{"xt":"urn:btih:0f90cc3d3dfdcab1148d1ee7be4b9fa8a5615740","dn":"Tubelight 2017 Hindi (1CD) Pre-DvDRip x264 AAC { TaRa }","tr":["udp://exodus.desync.com:6969","udp://open.demonii.com:1337","udp://tracker.coppersurfer.tk:6969","udp://tracker.leechers-paradise.org:6969","udp://zer0day.ch:1337"],"infoHash":"0f90cc3d3dfdcab1148d1ee7be4b9fa8a5615740","infoHashBuffer":{"type":"Buffer","data":[15,144,204,61,61,253,202,177,20,141,30,231,190,75,159,168,165,97,87,64]},"name":"Tubelight 2017 Hindi (1CD) Pre-DvDRip x264 AAC { TaRa }","announce":["udp://exodus.desync.com:6969","udp://open.demonii.com:1337","udp://tracker.coppersurfer.tk:6969","udp://tracker.leechers-paradise.org:6969","udp://zer0day.ch:1337"],"urlList":[]}}